# xmcd
#
# Track frame offsets: 
#        150
#        15344
#        22082
#        37451
#        52464
#        65446
#        80267
#        91951
#        108743
#        126841
#        145692
#        163799
#        176142
#        188530
#        207384
#        222485
#        237717
#
# Disc length: 3386 seconds
#
# Revision: 0
# Processed by: cddbd v1.5.2PL0 Copyright (c) Steve Scherf et al.
# Submitted via: ExactAudioCopy v0.99pb4
#
DISCID=050d3811
DTITLE=Various Artist - New Releases 2009
DYEAR=2009
DGENRE=Alternative
TTITLE0=Madeleine Peyroux - Bare Bones
TTITLE1=Delta Spirit - Tomorrow Goes Away
TTITLE2=Alison Krauss and Robert Plant - Sister Rosetta Goes before Us
TTITLE3=Son Volt - When the Wheels Don't Move
TTITLE4=Newfound Road - River of Pain
TTITLE5=Dry Branch Fire Squad - Stormy Waters
TTITLE6=Nanci Griffith - The Loving Kind
TTITLE7=Dailey and Vincent - Please Don't Let Our Sweet Love Die
TTITLE8=The Tragically Hip - Morning Moon
TTITLE9=Vienna Teng - White Light
TTITLE10=Sam Roberts - Strip Mall Religion
TTITLE11=Woodie Guthrie - This Land is Your Land (Unmastered)
TTITLE12=Delta Spirit - Bleeding Bells
TTITLE13=Alecia Nugent - Wreckin' the Train
TTITLE14=Bobby Osborne (Feat. Rhonda Vincent) - After the Fire is Gone
TTITLE15=Rhonda Vincent - Stop the World (and Let Me Off)
TTITLE16=Doyle Lawson and Quicksilver - Monroe's Mandolin
EXTD=
EXTT0=
EXTT1=
EXTT2=
EXTT3=
EXTT4=
EXTT5=
EXTT6=
EXTT7=
EXTT8=
EXTT9=
EXTT10=
EXTT11=
EXTT12=
EXTT13=
EXTT14=
EXTT15=
EXTT16=
PLAYORDER=
